<svg  viewBox="0 0 24 24" width="24" height="24" xmlns="http://www.w3.org/2000/svg">
    <g clip-path="url(#clip0_302_2)">
        <rect width="24" height="24" fill="white"/>
        <path d="M1.54918 12.3217L11.2652 1.79604C11.6612 1.36708 12.3388 1.36708 12.7348 1.79604L22.4508 12.3217C23.0421 12.9623 22.5878 14 21.716 14H19V22C19 22.5523 18.5523 23 18 23H14.5C13.9477 23 13.5 22.5523 13.5 22V19.5V16.5C13.5 15.9477 13.0523 15.5 12.5 15.5H12H11.5C10.9477 15.5 10.5 15.9477 10.5 16.5V22C10.5 22.5523 10.0523 23 9.5 23H6C5.44772 23 5 22.5523 5 22V14H2.28399C1.41223 14 0.957885 12.9623 1.54918 12.3217Z" fill="current" stroke="black"/>
    </g>
    <defs>
        <clipPath id="clip0_302_2">
            <rect width="24" height="24" fill="white"/>
        </clipPath>
    </defs>
</svg>
